<svg width="22" height="22" viewBox="0 0 22 22" fill="none" xmlns="http://www.w3.org/2000/svg">
<path d="M2.75 9.16479V12.8315C2.75 13.3356 3.1625 13.7481 3.66667 13.7481H6.41667L9.4325 16.764C10.01 17.3415 11 16.929 11 16.1131V5.87396C11 5.05812 10.01 4.64562 9.4325 5.22312L6.41667 8.24812H3.66667C3.1625 8.24812 2.75 8.66062 2.75 9.16479ZM15.125 10.9981C15.125 9.37562 14.19 7.98229 12.8333 7.30396V14.6831C14.19 14.014 15.125 12.6206 15.125 10.9981ZM12.8333 4.07729V4.26063C12.8333 4.60896 13.0625 4.91146 13.3833 5.03979C15.7483 5.98396 17.4167 8.30312 17.4167 10.9981C17.4167 13.6931 15.7483 16.0123 13.3833 16.9565C13.0533 17.0848 12.8333 17.3873 12.8333 17.7356V17.919C12.8333 18.4965 13.4108 18.8998 13.9425 18.6981C17.05 17.5156 19.25 14.5181 19.25 10.9981C19.25 7.47812 17.05 4.48062 13.9425 3.29812C13.4108 3.08729 12.8333 3.49979 12.8333 4.07729Z" fill="#161616"/>
</svg>
